<?xml version="1.0" encoding="UTF-8" standalone="no"?>
<!DOCTYPE svg PUBLIC "-//W3C//DTD SVG 1.1//EN" "http://www.w3.org/Graphics/SVG/1.1/DTD/svg11.dtd">
<svg width="100%" height="100%" viewBox="0 0 512 512" version="1.1" xmlns="http://www.w3.org/2000/svg" xmlns:xlink="http://www.w3.org/1999/xlink" xml:space="preserve" xmlns:serif="http://www.serif.com/" style="fill-rule:evenodd;clip-rule:evenodd;stroke-linejoin:round;stroke-miterlimit:2;">
    <path d="M498.438,42.063C504.91,45.803 509.215,50.756 511.531,57.898C513.26,65.648 511.854,72.351 507.735,79.061C503.577,85.283 416.35,199.288 400.738,219.035C395.774,232.262 457.716,336.875 461.16,378.957C462.254,403.819 449.447,425.181 433.5,443.125L427.363,449.836C417.166,460.778 401.577,471.252 386.313,472.238L379.902,472.4C365.644,472.569 239.975,414.255 232.041,411.013C220.878,406.452 216.339,407.647 215,408C195.785,419.288 162.782,459.852 133.289,457.813C110.457,454.672 94.236,428.252 84.391,417.633C75.008,407.299 56.7,384.746 54.344,381.844C43.946,369.228 43.766,369.683 33.344,356.844C30.607,353.523 27.808,350.26 25,347C-0.821,316.935 -0.821,316.935 -0.215,299.652C0.033,296.588 1.033,284.25 18.776,266.238C19.782,265.216 129.86,164.62 131.777,162.973C135.748,159.449 139.525,155.713 143.459,152.148C147.144,148.809 150.797,145.429 154.633,142.264C163.403,134.157 154.25,71.487 178.687,48.406C188.163,40.935 199.4,39.895 211,41C219.892,42.638 226.279,47.872 233.11,53.468C239.656,58.774 309.999,115.794 317.24,116.835C322.188,115.338 471.945,43.548 478.459,41.78C480.001,41.361 490.641,38.471 498.438,42.063ZM195,72C187.687,84.135 192.051,143.069 176.336,160.887C172.958,164.442 169.204,167.594 165.492,170.793C140.928,192.547 117.168,215.193 92.949,237.332C74.816,253.908 57.159,271.029 38.438,286.937C34.05,290.751 29.911,294.427 27.938,300C27.978,301.94 28.407,303.939 29.31,305.656C32.085,310.927 126.433,426.563 135,429.742C152.808,430.925 191.393,375.361 224.698,378.559C236.838,380.883 256.059,391.295 374.219,442.903C379.734,445.079 382.657,444.883 388.172,442.805C399.613,437.634 411.241,425.754 412.984,423.973C424.287,411.711 432.055,398.553 432.375,381.625C432.412,380.915 432.45,380.204 432.488,379.473C432.77,361.477 402.72,306.727 378.258,245.119C375.221,237.796 371.528,232.639 366,227C331.558,185.681 325.234,179.021 315.336,166.836C311.443,162.11 292.651,140.553 286.063,131.75C281.747,126.314 215.371,74.123 207.592,71.014C200.112,68.024 195.798,71.38 195,72ZM332,142C337.86,154.563 374.985,194.663 379,199L381,199C383.61,195.859 474.675,76.027 476,74C471.602,74 342.872,136.528 332,142Z" style="fill-rule:nonzero;"/>
    <circle cx="307.529" cy="256" r="29.024"/>
</svg>
